# Blender v2.79 (sub 0) OBJ File: 'info_delis.blend'
# www.blender.org
mtllib info_delis.mtl
o Plane
v 0.452100 0.876997 0.225017
v 0.452100 0.876997 -0.252305
v -0.452536 0.876997 0.225017
v -0.452536 0.876997 -0.252305
v -0.452536 0.905396 0.225017
v 0.452100 0.905396 0.225017
v 0.452100 0.905396 -0.252305
v -0.452536 0.905396 -0.252305
v -0.150991 0.876997 0.225017
v 0.150554 0.876997 0.225017
v 0.150554 0.876997 -0.252305
v -0.150991 0.876997 -0.252305
v -0.150991 0.905396 0.225017
v 0.150554 0.905396 0.225017
v 0.150554 0.905396 -0.252305
v -0.150991 0.905396 -0.252305
v 0.452100 0.876997 0.065909
v 0.452100 0.876997 -0.093198
v -0.452536 0.876997 -0.093198
v -0.452536 0.876997 0.065909
v 0.452100 0.905396 0.065909
v 0.452100 0.905396 -0.093198
v -0.452536 0.905396 -0.093198
v -0.452536 0.905396 0.065909
v 0.150554 0.905396 -0.093198
v 0.150554 0.905396 0.065909
v -0.150991 0.905396 -0.093198
v -0.150991 0.905396 0.065909
v 0.150554 0.876997 0.065909
v 0.150554 0.876997 -0.093198
v -0.150991 0.876997 0.065909
v -0.150991 0.876997 -0.093198
v 0.150554 -0.314709 0.065909
v 0.150554 -0.314709 -0.093198
v -0.150991 -0.314709 0.065909
v -0.150991 -0.314709 -0.093198
v -0.150991 0.051557 0.065909
v 0.150554 0.051557 0.065909
v 0.150554 0.051557 -0.093198
v -0.150991 0.051557 -0.093198
v -0.150991 -0.314709 0.114302
v 0.150554 -0.314709 0.114302
v -0.150991 0.051557 0.114302
v 0.150554 0.051557 0.114302
v -0.682340 -0.960101 0.114302
v 0.681903 -0.960101 0.114302
v -0.682340 0.696948 0.114302
v 0.681903 0.696948 0.114302
v -0.635798 -0.913559 0.183036
v 0.635361 -0.913559 0.183036
v -0.635798 0.650406 0.183036
v 0.635361 0.650406 0.183036
v -0.682340 -0.960101 0.183036
v 0.681903 -0.960101 0.183036
v -0.682340 0.696948 0.183036
v 0.681903 0.696948 0.183036
v -0.635798 -0.913559 0.163871
v 0.635361 -0.913559 0.163871
v -0.635798 0.650406 0.163871
v 0.635361 0.650406 0.163871
vt 0.223566 0.726349
vt 0.151380 0.764438
vt 0.151380 0.726349
vt 0.861296 0.103399
vt 0.899384 0.031213
vt 0.899384 0.103399
vt 0.223566 0.764438
vt 0.151380 0.771236
vt 0.007007 0.650172
vt 0.079194 0.643374
vt 0.079194 0.650173
vt 0.223566 0.650173
vt 0.230365 0.688261
vt 0.223566 0.688261
vt 0.007007 0.764438
vt 0.000209 0.726349
vt 0.007007 0.726349
vt 0.151380 0.650173
vt 0.223566 0.643374
vt 0.151380 0.643374
vt 0.079194 0.764438
vt 0.007007 0.771236
vt 0.079194 0.771236
vt 0.861296 0.247772
vt 0.899384 0.175586
vt 0.899384 0.247772
vt 0.861296 0.175586
vt 0.079194 0.726349
vt 0.079194 0.688261
vt 0.323578 0.357676
vt 0.335163 0.445355
vt 0.323578 0.445355
vt 0.007007 0.688261
vt 0.937473 0.175586
vt 0.975561 0.103399
vt 0.975561 0.175586
vt 0.937473 0.103399
vt 0.937473 0.247772
vt 0.975561 0.247772
vt 0.000209 0.650172
vt 0.000209 0.688261
vt 0.230365 0.764438
vt 0.230365 0.726349
vt 0.975561 0.031213
vt 0.937473 0.031213
vt 0.151380 0.688261
vt 0.285489 0.285490
vt 0.323578 0.285489
vt 0.197810 0.285490
vt 0.285490 0.357676
vt 0.197810 0.357676
vt 0.285490 0.445356
vt 0.323577 0.197810
vt 0.285489 0.197810
vt 0.323577 0.000209
vt 0.285488 0.000209
vt 0.285490 0.642956
vt 0.323579 0.642956
vt 0.000209 0.285490
vt 0.000209 0.357677
vt 0.535373 0.297282
vt 0.505247 0.275181
vt 0.535503 0.300198
vt 0.549873 0.282299
vt 0.358138 0.454716
vt 0.487358 0.280826
vt 0.534397 0.275434
vt 0.335163 0.357676
vt 0.335162 0.285489
vt 0.683354 0.868266
vt 0.666899 0.477448
vt 0.683354 0.477448
vt 0.683397 0.013383
vt 0.686194 0.453740
vt 0.356089 0.011928
vt 0.481197 0.186526
vt 0.554378 0.189191
vt 0.298526 0.804983
vt 0.015722 0.809922
vt 0.015711 0.804986
vt 0.666899 0.460994
vt 0.350082 0.480378
vt 0.350082 0.463923
vt 0.352035 0.882767
vt 0.666900 0.868266
vt 0.666900 0.884721
vt 0.333628 0.480378
vt 0.352035 0.866313
vt 0.335581 0.866313
vt 0.361223 0.491519
vt 0.655758 0.488589
vt 0.363177 0.855172
vt 0.655758 0.857125
vt 0.695491 0.827576
vt 0.999791 0.453181
vt 0.999791 0.827576
vt 0.785305 0.045189
vt 0.790783 0.358871
vt 0.785307 0.358896
vt 0.796677 0.358871
vt 0.791201 0.045189
vt 0.796676 0.045165
vt 0.015722 0.815277
vt 0.298525 0.810340
vt 0.298536 0.815277
vt 0.861296 0.031213
vt 0.223566 0.771236
vt 0.007007 0.643374
vt 0.230365 0.650173
vt 0.000209 0.764438
vt 0.335162 0.197810
vt 0.298537 0.809920
vt 0.695490 0.453181
vt 0.790781 0.045165
vt 0.791201 0.358896
vt 0.015711 0.810341
vn 0.0000 -1.0000 0.0000
vn 0.0000 1.0000 0.0000
vn 0.0000 0.0000 -1.0000
vn 0.0000 0.0000 1.0000
vn -1.0000 0.0000 0.0000
vn 1.0000 0.0000 0.0000
usemtl info_delis
s off
f 19/1/1 12/2/1 32/3/1
f 16/4/2 23/5/2 27/6/2
f 4/7/3 16/8/3 12/2/3
f 1/9/4 14/10/4 10/11/4
f 3/12/5 24/13/5 20/14/5
f 2/15/6 22/16/6 18/17/6
f 9/18/4 5/19/4 3/12/4
f 10/11/4 13/20/4 9/18/4
f 11/21/3 7/22/3 2/15/3
f 12/2/3 15/23/3 11/21/3
f 7/24/2 25/25/2 22/26/2
f 15/27/2 27/6/2 25/25/2
f 30/28/1 2/15/1 18/17/1
f 32/3/1 11/21/1 30/28/1
f 9/18/1 29/29/1 10/11/1
f 35/30/5 43/31/5 37/32/5
f 10/11/1 17/33/1 1/9/1
f 29/29/1 18/17/1 17/33/1
f 26/34/2 13/35/2 14/36/2
f 25/25/2 28/37/2 26/34/2
f 21/38/2 14/36/2 6/39/2
f 22/26/2 26/34/2 21/38/2
f 17/33/6 6/40/6 1/9/6
f 18/17/6 21/41/6 17/33/6
f 19/1/5 8/42/5 4/7/5
f 20/14/5 23/43/5 19/1/5
f 28/37/2 5/44/2 13/35/2
f 27/6/2 24/45/2 28/37/2
f 3/12/1 31/46/1 9/18/1
f 20/14/1 32/3/1 31/46/1
f 35/30/1 34/47/1 33/48/1
f 39/49/3 36/50/3 40/51/3
f 40/52/5 35/30/5 37/32/5
f 38/53/6 34/47/6 39/54/6
f 29/55/6 39/54/6 30/56/6
f 32/57/5 37/32/5 31/58/5
f 30/59/3 40/51/3 32/60/3
f 31/61/4 38/62/4 29/63/4
f 43/64/3 48/65/3 44/66/3
f 37/67/2 44/66/2 38/62/2
f 33/48/1 41/68/1 35/30/1
f 38/53/6 42/69/6 33/48/6
f 48/70/6 54/71/6 46/72/6
f 43/64/3 45/73/3 47/74/3
f 44/66/3 46/75/3 42/76/3
f 42/76/3 45/73/3 41/77/3
f 51/78/1 60/79/1 52/80/1
f 46/81/1 53/82/1 45/83/1
f 47/84/2 56/85/2 48/86/2
f 45/87/5 55/88/5 47/89/5
f 49/90/4 54/71/4 50/91/4
f 51/92/4 53/82/4 49/90/4
f 50/91/4 56/85/4 52/93/4
f 52/93/4 55/88/4 51/92/4
f 59/94/4 58/95/4 60/96/4
f 49/97/6 59/98/6 51/99/6
f 52/100/5 58/101/5 50/102/5
f 50/103/2 57/104/2 49/105/2
f 19/1/1 4/7/1 12/2/1
f 16/4/2 8/106/2 23/5/2
f 4/7/3 8/107/3 16/8/3
f 1/9/4 6/108/4 14/10/4
f 3/12/5 5/109/5 24/13/5
f 2/15/6 7/110/6 22/16/6
f 9/18/4 13/20/4 5/19/4
f 10/11/4 14/10/4 13/20/4
f 11/21/3 15/23/3 7/22/3
f 12/2/3 16/8/3 15/23/3
f 7/24/2 15/27/2 25/25/2
f 15/27/2 16/4/2 27/6/2
f 30/28/1 11/21/1 2/15/1
f 32/3/1 12/2/1 11/21/1
f 9/18/1 31/46/1 29/29/1
f 35/30/5 41/68/5 43/31/5
f 10/11/1 29/29/1 17/33/1
f 29/29/1 30/28/1 18/17/1
f 26/34/2 28/37/2 13/35/2
f 25/25/2 27/6/2 28/37/2
f 21/38/2 26/34/2 14/36/2
f 22/26/2 25/25/2 26/34/2
f 17/33/6 21/41/6 6/40/6
f 18/17/6 22/16/6 21/41/6
f 19/1/5 23/43/5 8/42/5
f 20/14/5 24/13/5 23/43/5
f 28/37/2 24/45/2 5/44/2
f 27/6/2 23/5/2 24/45/2
f 3/12/1 20/14/1 31/46/1
f 20/14/1 19/1/1 32/3/1
f 35/30/1 36/50/1 34/47/1
f 39/49/3 34/47/3 36/50/3
f 40/52/5 36/50/5 35/30/5
f 38/53/6 33/48/6 34/47/6
f 29/55/6 38/53/6 39/54/6
f 32/57/5 40/52/5 37/32/5
f 30/59/3 39/49/3 40/51/3
f 31/61/4 37/67/4 38/62/4
f 43/64/3 47/74/3 48/65/3
f 37/67/2 43/64/2 44/66/2
f 33/48/1 42/69/1 41/68/1
f 38/53/6 44/111/6 42/69/6
f 48/70/6 56/85/6 54/71/6
f 43/64/3 41/77/3 45/73/3
f 44/66/3 48/65/3 46/75/3
f 42/76/3 46/75/3 45/73/3
f 51/78/1 59/112/1 60/79/1
f 46/81/1 54/71/1 53/82/1
f 47/84/2 55/88/2 56/85/2
f 45/87/5 53/82/5 55/88/5
f 49/90/4 53/82/4 54/71/4
f 51/92/4 55/88/4 53/82/4
f 50/91/4 54/71/4 56/85/4
f 52/93/4 56/85/4 55/88/4
f 59/94/4 57/113/4 58/95/4
f 49/97/6 57/114/6 59/98/6
f 52/100/5 60/115/5 58/101/5
f 50/103/2 58/116/2 57/104/2
